<svg id="Layer_1" data-name="Layer 1" xmlns="http://www.w3.org/2000/svg" viewBox="0 0 782.97 782.26"><defs><style>.cls-1{fill:#fff;fill-rule:evenodd;}</style></defs><title>cssfireball-white</title><path class="cls-1" d="M638.86,264.21c5.37-3.29,8.77-8.17,12-13.16,5.57-8.66,11.38-17.21,19.34-23.81,14.47-12,30-21.92,49.45-24.06,8.53-.93,17-2.74,25.58-2.08,15.93,1.24,29.38,7.81,39.83,20.12a30.87,30.87,0,0,1,6,10.38c1,3.19.49,3.82-2.8,3.17-7.68-1.52-15.35-2.52-23.29-1.33-5.72.85-9.94,4-13.66,7.68-11,10.83-17,23.8-17,39.64,0,11.39,2.25,22.34,4.32,33.4a165.36,165.36,0,0,1,3.07,38.5c-.69,13.74-5.36,26-15,36-2.37,2.46-5.51,4.19-8.42,6.07a3.32,3.32,0,0,0-1.8,2.26c-.61,2.7,0,4,2.93,5a104.29,104.29,0,0,1,20,9c7.35,4.39,10,11.45,11.33,18.89,2.85,15.78,2.23,31.69-.54,47.46-2.54,14.41-2.12,28.32,4.5,41.81,3.79,7.73,10.59,11,17.73,14a71,71,0,0,0,17,4.84c0,3.59-2.76,4.77-5,6.08a51.7,51.7,0,0,1-24.65,7.21c-8.53.24-17.12-1.07-25.63-2.17-2.67-.35-5.42.13-8.07-1-1.5-.63-2.4.39-2.74,2.3-1.25,6.94-2.5,13.9-4.32,20.71A330,330,0,0,1,705.08,611c-9,22-19.69,43.15-32.86,62.95-7,10.56-16,19.53-24.41,29-14.92,16.71-33,29.23-51.16,41.87-10.55,7.35-22.38,12-34,17.08a397.13,397.13,0,0,1-65.56,22.63,187.3,187.3,0,0,1-23.21,3.75c-17.27,2-34.55,3.46-51.89,2.72a327.41,327.41,0,0,1-37.18-3.42c-23.49-3.68-45.87-10.86-67.78-19.91a405.68,405.68,0,0,1-41-19.53A207.74,207.74,0,0,1,244,726a291.87,291.87,0,0,1-26.74-25.39,264.46,264.46,0,0,1-34.82-47.1c-10.37-17.62-18.17-36.28-25-55.44-1.21-3.4-1.82-7.68-4.23-9.84-3.23-2.88-6.22,1.69-9.38,2.75-9,3-17.9,6.53-27.39,7.89A157.58,157.58,0,0,1,85,600.39c-13.88-.78-25.39-7-36.69-13.73-8.3-4.93-13.46-13.21-18.62-21.23-4.53-7-8.52-14.21-10.12-22.51-.51-2.66-.75-5.37-1.16-8.06-.21-1.39.25-3.26,1.05-3.54,1.25-.44,2.64.85,3.4,2,2.34,3.65,5,7.09,8.71,9.31,9.24,5.44,18.63,10.7,29.93,6.34,7.82-3,14.61-7.7,18.29-15.41,2.4-5.07,3.46-10.78,5.29-16.15,5-14.76,9.12-29.82,14.78-44.38,2.62-6.78,7.1-12.49,11.74-17.6,8.94-9.87,18-20,30.5-25.74,2.36-1.11,5.33-2.72,4.66-5.48-.47-2-3.78-1.54-6-1.81-10.14-1.23-20.52-.9-30.4-3.77-17.22-5-33.95-11.55-48.29-22.42a153.82,153.82,0,0,1-36.22-38.71C17.2,344.21,12.44,329.57,10,314a149.78,149.78,0,0,1-1.46-19.86c-.22-9.4,2.86-18.07,5.37-26.87.34-1.21,1-2.6,3-2.51,2.31.1,1.72,1.58,2.07,2.91,2.44,9.16,3.16,18.79,8.1,27.25C32.51,304.18,40,309.35,51,309.78c6.41.25,12.82.54,19.24.57,9.24,0,17.77-2.75,26.2-6.37,11.17-4.79,19.83-13,29.21-20.32,8.78-6.82,16.93-14.63,27.27-19.11a240.47,240.47,0,0,1,37.76-12.62c15.16-3.78,30.46-6.8,46.17-6.07,6.27.29,12.54.6,18.83.59,1.83,0,4.16.28,4.77-1.78s-1.69-3.29-3.08-4.15a91.13,91.13,0,0,0-15.67-7.62,97.78,97.78,0,0,1-29-17.63,276.12,276.12,0,0,1-20.85-20.34c-11.11-11.81-21.81-24.07-28.53-39-5.28-11.74-7.89-23.95-6.1-37.12a160.58,160.58,0,0,1,9.65-37.38c.5-1.28.42-3.07,2.48-2.88,1.86.16,1.6,2,1.76,3,1.53,9.49,5.81,17.8,10.78,25.83a68.27,68.27,0,0,0,10.56,13.48c7.12,6.81,15.74,9.91,25.29,10.34,14.24.64,28.37-.74,42.46-2.86,15-2.24,30-4,45.15-3.1,17.87,1,35.24,4.36,50.87,13.42,9.4,5.44,17.25,13,24.38,21.25,1.16,1.33,2.08,3,4,2.24,1.74-.67.78-2.54.79-3.81.08-13.56-.3-27.12.16-40.65.39-11.71,2.1-23.36,2.5-35.07a194.42,194.42,0,0,0-.39-25.53c-.61-6.22-1.25-12.41-2.45-18.5-1.79-9.06-6.68-16.4-13.46-22.65-1.78-1.64-5.34-3.12-4-6,1.1-2.49,3.86.19,5.94.12,7-.24,13.48,1.84,19.75,4.86,13.67,6.56,26.86,14,39.79,21.86,11.91,7.25,20.69,17.79,28.72,28.9,11.72,16.27,22.37,33.25,30.91,51.46,4.68,10,7.25,20.74,11.07,31.06.26.71.57,1.42.81,2.14a2,2,0,0,0,2.32,1.61c1.46-.18.83-1.37.95-2.16,1.57-10.08,2.81-20.22,4.75-30.22,2.13-10.93,7-21,11.11-31.3,6.06-15.17,15.54-28,26.42-40,9.14-10.11,20.46-17,31.79-24.17,11-7,23.31-10,35.79-11.51,9.43-1.16,19.29-1.09,28.6,2.23,1.54.55,3.42,1.34,3.28,3.39-.12,1.87-2.16,1.61-3.34,1.89-17.24,4-31,13-39.54,28.75a51,51,0,0,0-5.67,18.77c-1.89,16.27.91,31.79,6.37,46.92a171.13,171.13,0,0,0,15.75,33.19,126.47,126.47,0,0,1,16.63,41.53c2.24,10.6,4.91,21.13,6,31.88A65.43,65.43,0,0,1,643.09,246c-1.45,4.81-2.82,9.64-4.25,14.46A5.25,5.25,0,0,0,638.86,264.21Zm-185.4,467c-4.73-.24-11.84.56-18.92-.41-23.58-3.17-46.34-9.72-68.74-17.41a149.82,149.82,0,0,1-36.19-18.66c-19.09-13.21-36.53-27.94-49.89-47.33-17.25-25.06-29.53-52.08-35.34-82-2.71-13.93-4.87-28-4.6-42.15.25-13.33,1.9-26.62,3.41-39.92,3.62-31.82,16.64-60,33.78-86.26,11.07-17,25.65-31.34,41.86-43.53,17.93-13.51,38.51-22.09,60.17-27.76a169.22,169.22,0,0,1,76.84-2.38c25.56,5.1,50,12.94,70.77,29.72,16,12.9,31.1,26.38,40.68,45.09,6,11.77,13.12,23.12,16.91,35.79a197.88,197.88,0,0,1,8,69.57c-1.6,24.95-8.31,48.26-22.65,68.91-7.71,11.12-14.56,23.12-26.15,31-16.83,11.48-34,22-54.86,24.62-28.4,3.61-55.42.2-80.37-14.55C382.57,598.46,364.43,577.38,357,548c-5.81-22.78-7.26-45.55,1.51-68,7.6-19.4,19.9-34.94,40-42.22,16.65-6,33.64-5.94,49.31,3.65,14.9,9.13,25.32,34,22.11,51.3-2.25,12.12-7.85,18-18.94,19.9-1.25.21-2.78,1.31-3.66.06-1-1.51.18-3.19,1.11-4.29,7.72-9,2.77-30.89-8.27-36.47-6.63-3.37-13.21-6.18-20.81-2.62-15.63,7.36-23,20.16-24,36.8s1.77,32.82,10.43,47.6c12.35,21.08,31.66,30.19,55,30.42,15,.15,29.38-4.49,42.51-12.36,17-10.15,29.27-24.14,35.65-42.89,5.26-15.47,6-31.64,5.16-47.81-.59-11.22-1-22.59-6.14-33A186.63,186.63,0,0,0,525.23,427a134.65,134.65,0,0,0-25.41-28.72c-13-10.83-28.37-17.08-44.61-21.08-12.14-3-24.47-5.1-37-4.19a112.54,112.54,0,0,0-43.87,12.57c-13.77,7.1-27.56,14.13-38.16,25.83a167.13,167.13,0,0,0-27.24,41.55c-4.16,8.87-8.76,17.64-11,27.18a175.59,175.59,0,0,0-2.33,68.32c2.13,13.08,4.53,26.13,10.64,38,10.38,20.22,22.24,39.31,39,55.14,11,10.4,22.44,20.3,35.8,27.38,25.88,13.71,53.5,21,83.05,20.4,14.82-.3,29.79.26,44.15-3.69a310.08,310.08,0,0,0,54.38-21,118,118,0,0,0,44.76-37.89C621.48,607,633,585.61,642.94,563.46a169.74,169.74,0,0,0,12.41-40.82,210.89,210.89,0,0,0,2.57-57.26c-1.46-14.71-2.52-29.45-6-43.91C646.23,398,637,376,623.43,356.11a284.12,284.12,0,0,0-53.83-58.45c-10.42-8.63-21-17.07-32.42-24.14-16.94-10.41-35.39-17.38-54.72-22.08-13.91-3.38-27.9-6.69-42.2-7a356.64,356.64,0,0,0-49.07,2.6c-32.5,3.7-61.88,16.11-89.86,32.05-14.44,8.22-27.45,18.79-40.53,29.06-19.13,15-33.08,34.58-45.48,55.12a242.6,242.6,0,0,0-31.67,84c-3.32,18.87-6.19,37.79-5.39,57.05.48,11.66,1.52,23.29,1.83,34.93.52,20.2,6.17,39.16,12.29,58.07A186.37,186.37,0,0,0,214,641.62c10.68,16.33,20.9,32.94,35.66,46.1,6.46,5.78,12.3,12.19,18.93,17.79,9.86,8.32,21.22,14.38,31.72,21.7,24.19,16.87,51.54,26,79.63,33.25a237.3,237.3,0,0,0,50,7.72,431.09,431.09,0,0,0,60.48-1.49c26.11-2.65,50.24-12.34,73.88-23.05,21.54-9.75,41.14-22.85,59.6-37.57,14.39-11.5,27.64-24.28,37.6-39.9a361.57,361.57,0,0,0,38.89-81.9c4.08-12.44,8-24.94,8.94-38.13.55-7.69,1.49-5.89-5.85-9.52-3.86-1.9-4.93-.9-6.08,2.71a391.19,391.19,0,0,1-31,72.82c-16.93,30.28-39.17,55.56-68,74.82-19.16,12.78-38.45,25.11-61,31.82C510.62,726.73,483.67,731.6,453.46,731.18Z" transform="translate(-8.51 -8.87)"/></svg>